<svg xmlns="http://www.w3.org/2000/svg" xmlns:xlink="http://www.w3.org/1999/xlink" width="1920" zoomAndPan="magnify" viewBox="0 0 1440 809.999993" height="1080" preserveAspectRatio="xMidYMid meet" version="1.0"><defs><clipPath id="b00dca06e6"><path d="M 606 328.5 L 713 328.5 L 713 480 L 606 480 Z M 606 328.5 " clip-rule="nonzero"/></clipPath><clipPath id="56603095e3"><path d="M 698 356 L 739 356 L 739 481.5 L 698 481.5 Z M 698 356 " clip-rule="nonzero"/></clipPath><clipPath id="5574aca7b5"><path d="M 793 356 L 834 356 L 834 481.5 L 793 481.5 Z M 793 356 " clip-rule="nonzero"/></clipPath></defs><g clip-path="url(#b00dca06e6)"><path fill="#38b6ff" d="M 637.089844 474.421875 C 641.910156 471.039062 645.636719 466.277344 648.226562 460.128906 C 650.835938 453.980469 652.816406 447.847656 654.191406 441.714844 L 668.71875 378.828125 L 687.558594 378.828125 L 690.050781 370.441406 L 670.65625 370.441406 L 671.320312 367.589844 L 673.351562 358.765625 C 674.097656 355.316406 674.808594 352.640625 675.496094 350.738281 C 676.984375 346.726562 678.316406 343.800781 679.480469 341.980469 C 680.65625 340.144531 682.074219 338.742188 683.742188 337.769531 C 685.40625 336.796875 687.117188 336.300781 688.867188 336.300781 C 690.253906 336.300781 691.570312 336.671875 692.851562 337.390625 C 694.109375 338.121094 695.722656 339.574219 697.609375 341.753906 C 699.3125 343.625 700.832031 344.925781 702.148438 345.644531 C 703.152344 346.214844 704.292969 346.5 705.578125 346.5 C 707.382812 346.5 708.949219 345.847656 710.300781 344.554688 C 711.652344 343.261719 712.320312 341.753906 712.320312 340.042969 C 712.320312 337.191406 710.6875 334.546875 707.40625 332.140625 C 704.136719 329.707031 699.605469 328.5 693.800781 328.5 C 685.195312 328.5 678.113281 330.964844 672.578125 335.898438 C 667.027344 340.832031 663.015625 348.816406 660.535156 359.878906 L 658.78125 367.589844 L 658.132812 370.441406 L 642.078125 370.441406 L 639.589844 378.828125 L 656.230469 378.828125 L 640.175781 449.433594 C 638.28125 458.257812 636.191406 464.019531 633.910156 466.71875 C 631.628906 469.421875 628.984375 470.765625 625.984375 470.765625 C 625.101562 470.765625 624.210938 470.539062 623.355469 470.066406 C 622.484375 469.605469 621.152344 468.566406 619.371094 466.957031 C 616.839844 464.675781 614.53125 463.53125 612.425781 463.53125 C 610.640625 463.53125 609.128906 464.136719 607.90625 465.351562 C 606.65625 466.570312 606.035156 468.046875 606.035156 469.75 C 606.035156 472.191406 607.417969 474.429688 610.179688 476.441406 C 612.929688 478.472656 616.628906 479.488281 621.242188 479.488281 C 626.964844 479.488281 632.25 477.800781 637.089844 474.421875 Z M 637.089844 474.421875 " fill-opacity="1" fill-rule="nonzero"/></g><g clip-path="url(#56603095e3)"><path fill="#38b6ff" d="M 725.179688 378.5625 C 728.300781 371.992188 732.664062 365.910156 738.226562 360.300781 L 734.316406 356.449219 C 729.527344 359.929688 725.164062 364.308594 721.1875 369.59375 C 717.230469 374.871094 713.546875 381.597656 710.140625 389.75 C 706.734375 397.902344 703.910156 407.367188 701.660156 418.128906 C 699.414062 428.890625 698.304688 438.351562 698.304688 446.53125 C 698.304688 454.136719 699.320312 461.277344 701.367188 467.929688 C 702.96875 473.1875 705.519531 477.976562 709 482.28125 L 713.378906 479.085938 C 711.367188 475.90625 709.863281 472.457031 708.875 468.742188 C 707.875 465.027344 707.375 461.210938 707.375 457.292969 C 707.375 448.117188 709.292969 434.886719 713.167969 417.609375 C 717.042969 400.3125 721.046875 387.300781 725.179688 378.5625 Z M 725.179688 378.5625 " fill-opacity="1" fill-rule="nonzero"/></g><path fill="#38b6ff" d="M 731.957031 452.402344 C 736.085938 452.402344 740.28125 450.574219 744.515625 446.925781 C 748.761719 443.265625 754.164062 435.414062 760.730469 423.363281 L 766.074219 438.453125 C 767.996094 443.835938 770.132812 447.511719 772.507812 449.464844 C 774.871094 451.421875 777.925781 452.402344 781.667969 452.402344 C 784.804688 452.402344 787.816406 451.570312 790.734375 449.910156 C 793.652344 448.25 796.824219 445.28125 800.265625 441.003906 L 796.09375 437.53125 C 792.128906 441.472656 789.660156 443.730469 788.722656 444.300781 C 787.371094 445.085938 785.96875 445.480469 784.542969 445.480469 C 782.941406 445.480469 781.367188 444.691406 779.839844 443.097656 C 778.3125 441.523438 776.71875 438.269531 775.015625 433.351562 L 769.941406 418.824219 L 778.4375 405.832031 C 780.703125 402.828125 782.832031 400.738281 784.847656 399.566406 C 786.84375 398.390625 789.007812 397.792969 791.3125 397.792969 C 792.09375 397.792969 793.117188 397.828125 794.375 397.894531 C 795.246094 397.960938 795.96875 397.996094 796.53125 397.996094 C 798.578125 397.996094 800.195312 397.5 801.371094 396.527344 C 802.546875 395.546875 803.132812 394.253906 803.132812 392.644531 C 803.132812 390.949219 802.496094 389.550781 801.210938 388.433594 C 799.929688 387.328125 798.148438 386.773438 795.886719 386.773438 C 791.917969 386.773438 787.890625 388.449219 783.804688 391.8125 C 778.277344 396.308594 772.917969 403.195312 767.734375 412.492188 L 758.75 386.773438 L 754.1875 386.773438 C 751.855469 388.25 749.714844 389.398438 747.769531 390.195312 C 745.851562 391.007812 743.550781 391.664062 740.917969 392.191406 L 739.609375 397.542969 L 751.621094 397.542969 L 758.390625 416.660156 C 753.910156 424.394531 751.175781 428.980469 750.179688 430.425781 C 747.789062 434.074219 745.839844 436.605469 744.339844 438.023438 C 742.839844 439.433594 741.511719 440.382812 740.363281 440.859375 C 739.214844 441.339844 737.988281 441.574219 736.679688 441.574219 C 736.035156 441.574219 735.203125 441.488281 734.207031 441.3125 C 732.863281 441.101562 731.859375 440.992188 731.203125 440.992188 C 729.519531 440.992188 728.074219 441.546875 726.867188 442.65625 C 725.667969 443.761719 725.082031 445.0625 725.082031 446.53125 C 725.082031 448.097656 725.726562 449.464844 727.042969 450.640625 C 728.300781 451.816406 729.953125 452.402344 731.957031 452.402344 Z M 731.957031 452.402344 " fill-opacity="1" fill-rule="nonzero"/><g clip-path="url(#5574aca7b5)"><path fill="#38b6ff" d="M 810.757812 469.160156 C 814.726562 463.902344 818.425781 457.191406 821.8125 449.039062 C 825.226562 440.875 828.039062 431.421875 830.25 420.660156 C 832.472656 409.898438 833.582031 400.410156 833.582031 392.191406 C 833.582031 384.625 832.566406 377.519531 830.519531 370.859375 C 828.910156 365.558594 826.367188 360.746094 822.886719 356.449219 L 818.507812 359.710938 C 820.511719 362.890625 822.023438 366.339844 823.046875 370.046875 C 824.0625 373.761719 824.589844 377.5625 824.589844 381.429688 C 824.589844 390.648438 822.644531 403.902344 818.800781 421.191406 C 814.925781 438.476562 810.910156 451.488281 806.757812 460.226562 C 803.617188 466.796875 799.28125 472.859375 793.730469 478.421875 L 797.707031 482.273438 C 802.429688 478.792969 806.78125 474.421875 810.757812 469.160156 Z M 810.757812 469.160156 " fill-opacity="1" fill-rule="nonzero"/></g></svg>