<svg xmlns="http://www.w3.org/2000/svg" xmlns:xlink="http://www.w3.org/1999/xlink" width="1920" zoomAndPan="magnify" viewBox="0 0 1440 809.999993" height="1080" preserveAspectRatio="xMidYMid meet" version="1.0"><defs><clipPath id="0256cf7204"><path d="M 605 289.5 L 835 289.5 L 835 519 L 605 519 Z M 605 289.5 " clip-rule="nonzero"/></clipPath></defs><g clip-path="url(#0256cf7204)"><path fill="#ff0000" d="M 719.417969 289.238281 C 718.792969 289.25 718.171875 289.289062 717.550781 289.359375 C 716.933594 289.429688 716.320312 289.527344 715.710938 289.660156 C 715.101562 289.789062 714.5 289.949219 713.90625 290.140625 C 713.3125 290.328125 712.726562 290.546875 712.15625 290.792969 C 711.582031 291.039062 711.023438 291.316406 710.480469 291.617188 C 709.933594 291.917969 709.402344 292.246094 708.890625 292.601562 C 708.378906 292.953125 707.882812 293.332031 707.40625 293.734375 C 706.929688 294.136719 706.476562 294.558594 706.039062 295.007812 C 705.605469 295.453125 705.195312 295.921875 704.804688 296.410156 C 704.417969 296.894531 704.054688 297.402344 703.714844 297.925781 C 703.375 298.445312 703.0625 298.984375 702.777344 299.539062 C 702.492188 300.09375 702.234375 300.660156 702.003906 301.238281 C 701.773438 301.816406 701.570312 302.40625 701.398438 303.003906 C 701.226562 303.605469 701.082031 304.210938 700.96875 304.824219 C 700.855469 305.4375 700.773438 306.054688 700.722656 306.675781 C 700.667969 307.296875 700.644531 307.917969 700.65625 308.539062 L 700.65625 384.703125 L 624.492188 384.703125 C 623.863281 384.695312 623.234375 384.714844 622.609375 384.769531 C 621.980469 384.824219 621.359375 384.90625 620.738281 385.023438 C 620.121094 385.136719 619.507812 385.28125 618.90625 385.457031 C 618.300781 385.632812 617.707031 385.839844 617.125 386.074219 C 616.539062 386.308594 615.96875 386.570312 615.410156 386.863281 C 614.851562 387.152344 614.3125 387.472656 613.785156 387.816406 C 613.257812 388.164062 612.75 388.53125 612.261719 388.925781 C 611.769531 389.324219 611.300781 389.742188 610.855469 390.183594 C 610.40625 390.625 609.980469 391.089844 609.578125 391.570312 C 609.175781 392.054688 608.800781 392.558594 608.445312 393.082031 C 608.09375 393.601562 607.769531 394.140625 607.46875 394.691406 C 607.171875 395.246094 606.898438 395.8125 606.65625 396.394531 C 606.414062 396.972656 606.199219 397.566406 606.015625 398.167969 C 605.832031 398.769531 605.675781 399.378906 605.554688 399.996094 C 605.429688 400.613281 605.335938 401.234375 605.273438 401.859375 C 605.210938 402.484375 605.179688 403.113281 605.179688 403.742188 C 605.179688 404.371094 605.210938 405 605.273438 405.625 C 605.335938 406.253906 605.429688 406.875 605.554688 407.492188 C 605.675781 408.109375 605.832031 408.71875 606.015625 409.320312 C 606.199219 409.921875 606.414062 410.511719 606.65625 411.09375 C 606.898438 411.671875 607.171875 412.242188 607.46875 412.792969 C 607.769531 413.347656 608.09375 413.886719 608.445312 414.40625 C 608.800781 414.929688 609.175781 415.429688 609.578125 415.914062 C 609.980469 416.398438 610.40625 416.863281 610.855469 417.304688 C 611.300781 417.746094 611.769531 418.164062 612.261719 418.558594 C 612.75 418.953125 613.257812 419.324219 613.785156 419.667969 C 614.3125 420.015625 614.851562 420.332031 615.410156 420.625 C 615.96875 420.914062 616.539062 421.179688 617.125 421.414062 C 617.707031 421.648438 618.300781 421.851562 618.90625 422.027344 C 619.507812 422.203125 620.121094 422.347656 620.738281 422.464844 C 621.359375 422.578125 621.980469 422.664062 622.609375 422.71875 C 623.234375 422.769531 623.863281 422.792969 624.492188 422.785156 L 700.65625 422.785156 L 700.65625 498.945312 C 700.644531 499.574219 700.667969 500.203125 700.722656 500.832031 C 700.773438 501.457031 700.859375 502.082031 700.972656 502.699219 C 701.089844 503.316406 701.234375 503.929688 701.410156 504.535156 C 701.585938 505.136719 701.792969 505.730469 702.027344 506.316406 C 702.261719 506.898438 702.523438 507.46875 702.816406 508.027344 C 703.105469 508.585938 703.425781 509.128906 703.769531 509.652344 C 704.113281 510.179688 704.484375 510.6875 704.878906 511.179688 C 705.273438 511.667969 705.695312 512.136719 706.136719 512.585938 C 706.578125 513.03125 707.039062 513.457031 707.523438 513.859375 C 708.007812 514.261719 708.511719 514.640625 709.03125 514.992188 C 709.554688 515.34375 710.089844 515.671875 710.644531 515.96875 C 711.199219 516.269531 711.765625 516.539062 712.347656 516.78125 C 712.925781 517.023438 713.515625 517.238281 714.121094 517.421875 C 714.722656 517.605469 715.332031 517.761719 715.949219 517.886719 C 716.5625 518.007812 717.1875 518.101562 717.8125 518.164062 C 718.4375 518.226562 719.066406 518.257812 719.695312 518.257812 C 720.324219 518.257812 720.953125 518.226562 721.578125 518.164062 C 722.203125 518.101562 722.828125 518.007812 723.441406 517.886719 C 724.058594 517.761719 724.667969 517.605469 725.269531 517.421875 C 725.871094 517.238281 726.464844 517.023438 727.042969 516.78125 C 727.625 516.539062 728.191406 516.269531 728.746094 515.96875 C 729.300781 515.671875 729.835938 515.34375 730.359375 514.992188 C 730.878906 514.640625 731.382812 514.261719 731.867188 513.859375 C 732.351562 513.457031 732.8125 513.03125 733.253906 512.585938 C 733.695312 512.136719 734.117188 511.667969 734.511719 511.179688 C 734.90625 510.6875 735.277344 510.179688 735.621094 509.652344 C 735.964844 509.128906 736.285156 508.585938 736.574219 508.027344 C 736.867188 507.46875 737.128906 506.898438 737.363281 506.316406 C 737.597656 505.730469 737.804688 505.136719 737.980469 504.535156 C 738.15625 503.929688 738.300781 503.316406 738.417969 502.699219 C 738.53125 502.082031 738.617188 501.457031 738.667969 500.832031 C 738.722656 500.203125 738.746094 499.574219 738.734375 498.945312 L 738.734375 422.785156 L 814.898438 422.785156 C 815.527344 422.792969 816.15625 422.769531 816.78125 422.71875 C 817.410156 422.664062 818.03125 422.578125 818.652344 422.464844 C 819.269531 422.347656 819.882812 422.203125 820.484375 422.027344 C 821.089844 421.851562 821.683594 421.648438 822.265625 421.414062 C 822.851562 421.179688 823.421875 420.914062 823.980469 420.625 C 824.539062 420.332031 825.078125 420.015625 825.605469 419.667969 C 826.132812 419.324219 826.640625 418.953125 827.128906 418.558594 C 827.621094 418.164062 828.089844 417.746094 828.535156 417.304688 C 828.984375 416.859375 829.410156 416.398438 829.8125 415.914062 C 830.214844 415.429688 830.589844 414.929688 830.945312 414.40625 C 831.296875 413.886719 831.621094 413.347656 831.921875 412.792969 C 832.21875 412.242188 832.492188 411.671875 832.734375 411.09375 C 832.976562 410.511719 833.191406 409.921875 833.375 409.320312 C 833.558594 408.71875 833.714844 408.109375 833.835938 407.492188 C 833.960938 406.875 834.054688 406.253906 834.117188 405.625 C 834.179688 405 834.210938 404.371094 834.210938 403.742188 C 834.210938 403.113281 834.179688 402.484375 834.117188 401.859375 C 834.054688 401.234375 833.960938 400.613281 833.835938 399.996094 C 833.714844 399.378906 833.558594 398.769531 833.375 398.167969 C 833.191406 397.566406 832.976562 396.972656 832.734375 396.394531 C 832.492188 395.8125 832.21875 395.246094 831.921875 394.691406 C 831.621094 394.140625 831.296875 393.601562 830.945312 393.082031 C 830.589844 392.558594 830.214844 392.054688 829.8125 391.570312 C 829.410156 391.089844 828.984375 390.625 828.535156 390.183594 C 828.089844 389.742188 827.621094 389.324219 827.128906 388.925781 C 826.640625 388.53125 826.132812 388.164062 825.605469 387.816406 C 825.078125 387.472656 824.539062 387.152344 823.980469 386.863281 C 823.421875 386.570312 822.851562 386.308594 822.265625 386.074219 C 821.683594 385.839844 821.089844 385.632812 820.484375 385.457031 C 819.882812 385.28125 819.269531 385.136719 818.652344 385.023438 C 818.03125 384.90625 817.410156 384.824219 816.78125 384.769531 C 816.15625 384.714844 815.527344 384.695312 814.898438 384.703125 L 738.734375 384.703125 L 738.734375 308.539062 C 738.746094 307.90625 738.722656 307.273438 738.667969 306.640625 C 738.613281 306.007812 738.527344 305.378906 738.410156 304.753906 C 738.289062 304.128906 738.140625 303.515625 737.964844 302.90625 C 737.785156 302.296875 737.574219 301.699219 737.335938 301.109375 C 737.097656 300.519531 736.828125 299.945312 736.53125 299.382812 C 736.234375 298.824219 735.910156 298.277344 735.5625 297.75 C 735.210938 297.21875 734.832031 296.710938 734.429688 296.21875 C 734.027344 295.726562 733.601562 295.257812 733.152344 294.808594 C 732.703125 294.359375 732.234375 293.933594 731.742188 293.53125 C 731.25 293.132812 730.738281 292.753906 730.210938 292.40625 C 729.679688 292.054688 729.136719 291.730469 728.574219 291.433594 C 728.011719 291.136719 727.4375 290.871094 726.847656 290.632812 C 726.261719 290.394531 725.660156 290.183594 725.050781 290.007812 C 724.441406 289.828125 723.828125 289.679688 723.203125 289.5625 C 722.578125 289.445312 721.949219 289.359375 721.316406 289.308594 C 720.683594 289.253906 720.050781 289.230469 719.417969 289.238281 Z M 719.417969 289.238281 " fill-opacity="1" fill-rule="nonzero"/></g></svg>