<svg xmlns="http://www.w3.org/2000/svg" xmlns:xlink="http://www.w3.org/1999/xlink" width="1920" zoomAndPan="magnify" viewBox="0 0 1440 809.999993" height="1080" preserveAspectRatio="xMidYMid meet" version="1.0"><defs><clipPath id="22733d2a93"><path d="M 605 385.5 L 835 385.5 L 835 424 L 605 424 Z M 605 385.5 " clip-rule="nonzero"/></clipPath></defs><g clip-path="url(#22733d2a93)"><path fill="#004aad" d="M 624.492188 385.609375 C 623.863281 385.597656 623.234375 385.621094 622.609375 385.675781 C 621.980469 385.726562 621.359375 385.8125 620.738281 385.925781 C 620.121094 386.042969 619.507812 386.1875 618.90625 386.363281 C 618.300781 386.539062 617.707031 386.746094 617.125 386.980469 C 616.539062 387.214844 615.96875 387.476562 615.410156 387.769531 C 614.851562 388.058594 614.3125 388.378906 613.785156 388.722656 C 613.257812 389.066406 612.75 389.4375 612.261719 389.832031 C 611.769531 390.226562 611.300781 390.648438 610.855469 391.089844 C 610.40625 391.53125 609.980469 391.992188 609.578125 392.476562 C 609.175781 392.960938 608.800781 393.464844 608.445312 393.984375 C 608.09375 394.507812 607.769531 395.042969 607.46875 395.597656 C 607.171875 396.152344 606.898438 396.71875 606.65625 397.300781 C 606.414062 397.878906 606.199219 398.472656 606.015625 399.074219 C 605.832031 399.675781 605.675781 400.285156 605.554688 400.902344 C 605.429688 401.515625 605.335938 402.140625 605.273438 402.765625 C 605.210938 403.390625 605.179688 404.019531 605.179688 404.648438 C 605.179688 405.277344 605.210938 405.90625 605.273438 406.53125 C 605.335938 407.15625 605.429688 407.78125 605.554688 408.394531 C 605.675781 409.011719 605.832031 409.621094 606.015625 410.222656 C 606.199219 410.824219 606.414062 411.417969 606.65625 411.996094 C 606.898438 412.578125 607.171875 413.144531 607.46875 413.699219 C 607.769531 414.253906 608.09375 414.789062 608.445312 415.3125 C 608.800781 415.832031 609.175781 416.335938 609.578125 416.820312 C 609.980469 417.304688 610.40625 417.765625 610.855469 418.207031 C 611.300781 418.648438 611.769531 419.070312 612.261719 419.464844 C 612.75 419.859375 613.257812 420.230469 613.785156 420.574219 C 614.3125 420.917969 614.851562 421.238281 615.410156 421.527344 C 615.96875 421.820312 616.539062 422.082031 617.125 422.316406 C 617.707031 422.550781 618.300781 422.757812 618.90625 422.933594 C 619.507812 423.109375 620.121094 423.253906 620.738281 423.371094 C 621.359375 423.484375 621.980469 423.570312 622.609375 423.621094 C 623.234375 423.675781 623.863281 423.699219 624.492188 423.6875 L 814.898438 423.6875 C 815.527344 423.699219 816.15625 423.675781 816.78125 423.621094 C 817.410156 423.570312 818.03125 423.484375 818.652344 423.371094 C 819.269531 423.253906 819.882812 423.109375 820.484375 422.933594 C 821.089844 422.757812 821.683594 422.550781 822.265625 422.316406 C 822.851562 422.082031 823.421875 421.820312 823.980469 421.527344 C 824.539062 421.238281 825.078125 420.917969 825.605469 420.574219 C 826.132812 420.230469 826.640625 419.859375 827.128906 419.464844 C 827.621094 419.070312 828.089844 418.648438 828.535156 418.207031 C 828.984375 417.765625 829.410156 417.304688 829.8125 416.820312 C 830.214844 416.335938 830.589844 415.832031 830.945312 415.3125 C 831.296875 414.789062 831.621094 414.253906 831.921875 413.699219 C 832.21875 413.144531 832.492188 412.578125 832.734375 411.996094 C 832.976562 411.417969 833.191406 410.824219 833.375 410.222656 C 833.558594 409.621094 833.714844 409.011719 833.835938 408.394531 C 833.960938 407.78125 834.054688 407.15625 834.117188 406.53125 C 834.179688 405.90625 834.210938 405.277344 834.210938 404.648438 C 834.210938 404.019531 834.179688 403.390625 834.117188 402.765625 C 834.054688 402.140625 833.960938 401.515625 833.835938 400.902344 C 833.714844 400.285156 833.558594 399.675781 833.375 399.074219 C 833.191406 398.472656 832.976562 397.878906 832.734375 397.300781 C 832.492188 396.71875 832.21875 396.152344 831.921875 395.597656 C 831.621094 395.042969 831.296875 394.507812 830.945312 393.984375 C 830.589844 393.464844 830.214844 392.960938 829.8125 392.476562 C 829.410156 391.992188 828.984375 391.53125 828.535156 391.089844 C 828.089844 390.648438 827.621094 390.226562 827.128906 389.832031 C 826.640625 389.4375 826.132812 389.066406 825.605469 388.722656 C 825.078125 388.378906 824.539062 388.058594 823.980469 387.769531 C 823.421875 387.476562 822.851562 387.214844 822.265625 386.980469 C 821.683594 386.746094 821.089844 386.539062 820.484375 386.363281 C 819.882812 386.1875 819.269531 386.042969 818.652344 385.925781 C 818.03125 385.8125 817.410156 385.726562 816.78125 385.675781 C 816.15625 385.621094 815.527344 385.597656 814.898438 385.609375 Z M 624.492188 385.609375 " fill-opacity="1" fill-rule="nonzero"/></g></svg>