<svg xmlns="http://www.w3.org/2000/svg" xmlns:xlink="http://www.w3.org/1999/xlink" width="1920" zoomAndPan="magnify" viewBox="0 0 1440 809.999993" height="1080" preserveAspectRatio="xMidYMid meet" version="1.0"><defs><clipPath id="b766a456df"><path d="M 630 289.5 L 810.75 289.5 L 810.75 520 L 630 520 Z M 630 289.5 " clip-rule="nonzero"/></clipPath></defs><g clip-path="url(#b766a456df)"><path fill="#ff914d" d="M 794.003906 363.710938 C 794.542969 363.710938 795.078125 363.683594 795.613281 363.632812 C 796.144531 363.578125 796.675781 363.5 797.203125 363.398438 C 797.730469 363.292969 798.25 363.160156 798.761719 363.003906 C 799.277344 362.851562 799.78125 362.667969 800.277344 362.464844 C 800.773438 362.257812 801.257812 362.027344 801.734375 361.777344 C 802.207031 361.523438 802.667969 361.246094 803.113281 360.949219 C 803.558594 360.652344 803.988281 360.332031 804.40625 359.992188 C 804.820312 359.648438 805.21875 359.289062 805.597656 358.910156 C 805.976562 358.53125 806.335938 358.132812 806.675781 357.71875 C 807.019531 357.304688 807.335938 356.871094 807.636719 356.425781 C 807.933594 355.980469 808.210938 355.519531 808.460938 355.046875 C 808.714844 354.574219 808.945312 354.085938 809.152344 353.589844 C 809.355469 353.09375 809.535156 352.589844 809.691406 352.078125 C 809.847656 351.5625 809.980469 351.042969 810.082031 350.515625 C 810.1875 349.988281 810.265625 349.460938 810.320312 348.925781 C 810.371094 348.390625 810.398438 347.855469 810.398438 347.316406 L 810.398438 306.335938 C 810.398438 305.796875 810.371094 305.261719 810.320312 304.726562 C 810.265625 304.191406 810.1875 303.664062 810.082031 303.136719 C 809.980469 302.609375 809.847656 302.089844 809.691406 301.574219 C 809.535156 301.0625 809.355469 300.558594 809.152344 300.0625 C 808.945312 299.566406 808.714844 299.078125 808.460938 298.605469 C 808.210938 298.132812 807.933594 297.671875 807.636719 297.226562 C 807.335938 296.78125 807.019531 296.347656 806.675781 295.933594 C 806.335938 295.519531 805.976562 295.121094 805.597656 294.742188 C 805.21875 294.363281 804.820312 294.003906 804.40625 293.660156 C 803.988281 293.320312 803.558594 293 803.113281 292.703125 C 802.667969 292.40625 802.207031 292.128906 801.734375 291.875 C 801.257812 291.625 800.773438 291.394531 800.277344 291.1875 C 799.78125 290.984375 799.277344 290.800781 798.761719 290.648438 C 798.25 290.492188 797.730469 290.359375 797.203125 290.253906 C 796.675781 290.152344 796.144531 290.070312 795.613281 290.019531 C 795.078125 289.96875 794.542969 289.941406 794.003906 289.941406 L 646.464844 289.941406 C 644.941406 289.941406 643.449219 290.148438 641.984375 290.566406 C 640.519531 290.980469 639.140625 291.589844 637.84375 292.390625 C 636.550781 293.1875 635.390625 294.152344 634.363281 295.273438 C 633.335938 296.398438 632.480469 297.640625 631.800781 299.003906 C 631.121094 300.363281 630.636719 301.792969 630.355469 303.289062 C 630.070312 304.785156 630 306.289062 630.136719 307.804688 C 630.273438 309.324219 630.613281 310.792969 631.160156 312.210938 C 631.707031 313.632812 632.433594 314.953125 633.347656 316.171875 L 699.742188 404.695312 L 633.347656 493.21875 C 632.433594 494.4375 631.707031 495.757812 631.160156 497.179688 C 630.613281 498.597656 630.273438 500.066406 630.136719 501.585938 C 630 503.101562 630.070312 504.605469 630.355469 506.101562 C 630.636719 507.597656 631.121094 509.027344 631.800781 510.386719 C 632.480469 511.75 633.335938 512.992188 634.363281 514.117188 C 635.390625 515.238281 636.550781 516.203125 637.84375 517 C 639.140625 517.800781 640.519531 518.410156 641.984375 518.824219 C 643.449219 519.242188 644.941406 519.449219 646.464844 519.449219 L 794.003906 519.449219 C 794.542969 519.449219 795.078125 519.421875 795.613281 519.371094 C 796.144531 519.320312 796.675781 519.238281 797.203125 519.136719 C 797.730469 519.03125 798.25 518.898438 798.761719 518.742188 C 799.277344 518.589844 799.78125 518.40625 800.277344 518.203125 C 800.773438 517.996094 801.257812 517.765625 801.734375 517.515625 C 802.207031 517.261719 802.667969 516.984375 803.113281 516.6875 C 803.558594 516.390625 803.988281 516.070312 804.40625 515.730469 C 804.820312 515.386719 805.21875 515.027344 805.597656 514.648438 C 805.976562 514.269531 806.335938 513.871094 806.675781 513.457031 C 807.019531 513.042969 807.335938 512.609375 807.636719 512.164062 C 807.933594 511.71875 808.210938 511.257812 808.460938 510.785156 C 808.714844 510.3125 808.945312 509.824219 809.152344 509.328125 C 809.355469 508.832031 809.535156 508.328125 809.691406 507.816406 C 809.847656 507.300781 809.980469 506.78125 810.082031 506.253906 C 810.1875 505.726562 810.265625 505.199219 810.320312 504.664062 C 810.371094 504.128906 810.398438 503.59375 810.398438 503.054688 L 810.398438 462.074219 C 810.398438 461.535156 810.371094 461 810.320312 460.464844 C 810.265625 459.929688 810.1875 459.402344 810.082031 458.875 C 809.980469 458.347656 809.847656 457.828125 809.691406 457.3125 C 809.535156 456.800781 809.355469 456.296875 809.152344 455.800781 C 808.945312 455.304688 808.714844 454.816406 808.460938 454.34375 C 808.210938 453.871094 807.933594 453.410156 807.636719 452.964844 C 807.335938 452.519531 807.019531 452.085938 806.675781 451.671875 C 806.335938 451.257812 805.976562 450.859375 805.597656 450.480469 C 805.21875 450.101562 804.820312 449.742188 804.40625 449.398438 C 803.988281 449.058594 803.558594 448.738281 803.113281 448.441406 C 802.667969 448.144531 802.207031 447.867188 801.734375 447.613281 C 801.257812 447.363281 800.773438 447.132812 800.277344 446.925781 C 799.78125 446.722656 799.277344 446.539062 798.761719 446.386719 C 798.25 446.230469 797.730469 446.097656 797.203125 445.992188 C 796.675781 445.890625 796.144531 445.8125 795.613281 445.757812 C 795.078125 445.707031 794.542969 445.679688 794.003906 445.679688 C 793.46875 445.679688 792.933594 445.707031 792.398438 445.757812 C 791.863281 445.8125 791.332031 445.890625 790.808594 445.992188 C 790.28125 446.097656 789.761719 446.230469 789.246094 446.386719 C 788.730469 446.539062 788.226562 446.722656 787.730469 446.925781 C 787.234375 447.132812 786.75 447.363281 786.277344 447.613281 C 785.804688 447.867188 785.34375 448.144531 784.898438 448.441406 C 784.449219 448.738281 784.019531 449.058594 783.605469 449.398438 C 783.191406 449.742188 782.792969 450.101562 782.414062 450.480469 C 782.035156 450.859375 781.671875 451.257812 781.332031 451.671875 C 780.992188 452.085938 780.671875 452.519531 780.375 452.964844 C 780.074219 453.410156 779.800781 453.871094 779.546875 454.34375 C 779.292969 454.816406 779.066406 455.304688 778.859375 455.800781 C 778.652344 456.296875 778.472656 456.800781 778.316406 457.3125 C 778.160156 457.828125 778.03125 458.347656 777.925781 458.875 C 777.820312 459.402344 777.742188 459.929688 777.691406 460.464844 C 777.636719 461 777.613281 461.535156 777.613281 462.074219 L 777.613281 486.664062 L 679.25 486.664062 L 733.347656 414.53125 C 733.878906 413.828125 734.347656 413.085938 734.753906 412.304688 C 735.164062 411.523438 735.507812 410.714844 735.785156 409.878906 C 736.066406 409.042969 736.273438 408.191406 736.414062 407.320312 C 736.558594 406.453125 736.628906 405.578125 736.628906 404.695312 C 736.628906 403.8125 736.558594 402.9375 736.414062 402.070312 C 736.273438 401.199219 736.066406 400.347656 735.785156 399.511719 C 735.507812 398.675781 735.164062 397.867188 734.753906 397.085938 C 734.347656 396.304688 733.878906 395.5625 733.347656 394.859375 L 679.25 322.726562 L 777.613281 322.726562 L 777.613281 347.316406 C 777.613281 347.855469 777.636719 348.390625 777.691406 348.925781 C 777.742188 349.460938 777.820312 349.988281 777.925781 350.515625 C 778.03125 351.042969 778.160156 351.5625 778.316406 352.078125 C 778.472656 352.589844 778.652344 353.09375 778.859375 353.589844 C 779.066406 354.085938 779.292969 354.574219 779.546875 355.046875 C 779.800781 355.519531 780.074219 355.980469 780.375 356.425781 C 780.671875 356.871094 780.992188 357.304688 781.332031 357.71875 C 781.671875 358.132812 782.035156 358.53125 782.414062 358.910156 C 782.792969 359.289062 783.191406 359.648438 783.605469 359.992188 C 784.019531 360.332031 784.449219 360.652344 784.898438 360.949219 C 785.34375 361.246094 785.804688 361.523438 786.277344 361.777344 C 786.75 362.027344 787.234375 362.257812 787.730469 362.464844 C 788.226562 362.667969 788.730469 362.851562 789.246094 363.003906 C 789.761719 363.160156 790.28125 363.292969 790.808594 363.398438 C 791.332031 363.5 791.863281 363.578125 792.398438 363.632812 C 792.933594 363.683594 793.46875 363.710938 794.003906 363.710938 Z M 794.003906 363.710938 " fill-opacity="1" fill-rule="nonzero"/></g></svg>